# xmcd
# 
# Track frame offsets:
#     150
#     17437
#     30870
#     48962
#     67550
#     84325
#     98266
#     118163
#     132481
#     147331
#     165926
#     183536
# 
# Disc length: 3347
# 
# Revision: 0
# Processed by: cddbd v1.5.2PL0 Copyright (c) Steve Scherf et al.
# Submitted via: BonkEnc v1.0beta4
# 
DISCID=840d110c
DTITLE=Travis - The Invisible Band
DYEAR=2001
DGENRE=Alt. Pop/Rock, Britpop
TTITLE0=Sing
TTITLE1=Dear Diary
TTITLE2=Side
TTITLE3=Pipe Dreams
TTITLE4=Flowers in the Window
TTITLE5=The Cage
TTITLE6=Safe
TTITLE7=Follow The Light
TTITLE8=Last Train
TTITLE9=Afterglow
TTITLE10=Indefinitely
TTITLE11=The Humpty Dumpty Love Song
EXTD=
EXTT0=
EXTT1=
EXTT2=
EXTT3=
EXTT4=
EXTT5=
EXTT6=
EXTT7=
EXTT8=
EXTT9=
EXTT10=
EXTT11=
PLAYORDER=
